<svg xmlns="http://www.w3.org/2000/svg" xmlns:xlink="http://www.w3.org/1999/xlink" viewBox="0 0 604 604" width="604" height="200" style="width: 100%; height: 100%; transform: translate3d(0px, 0px, 0px);" preserveAspectRatio="xMidYMid meet">
  <defs>
    <clipPath id="__lottie_element_2">
      <rect width="604" height="604" x="0" y="0"></rect>
    </clipPath>
  </defs>
  <g clip-path="url(#__lottie_element_2)">
    <g style="display: block;" transform="matrix(1,0,0,1,92,261)" opacity="1">
      <path fill="#111827" fill-opacity="1" d=" M0,4 C0,1.7899999618530273 1.7899999618530273,0 4,0 C4,0 44.33000183105469,0 44.33000183105469,0 C54.91999816894531,0 63.22999954223633,2.5999999046325684 69.25,7.809999942779541 C75.4000015258789,13.020000457763672 78.47000122070312,20.700000762939453 78.47000122070312,30.850000381469727 C78.47000122070312,30.850000381469727 78.47000122070312,61.869998931884766 78.47000122070312,61.869998931884766 C78.47000122070312,72.0199966430664 75.4000015258789,73.66999816894531 69.25,78.87999725341797 C63.22999954223633,84.08999633789062 54.91999816894531,86.69000244140625 44.33000183105469,86.69000244140625 C44.33000183105469,86.69000244140625 33.619998931884766,86.69000244140625 33.619998931884766,86.69000244140625 C31.40999984741211,86.69000244140625 29.6200008392334,88.4800033569336 29.6200008392334,90.69000244140625 C29.6200008392334,90.69000244140625 29.6200008392334,116.72000122070312 29.6200008392334,116.72000122070312 C29.6200008392334,118.93000030517578 27.829999923706055,120.72000122070312 25.6200008392334,120.72000122070312 C25.6200008392334,120.72000122070312 4,120.72000122070312 4,120.72000122070312 C1.7899999618530273,120.72000122070312 0,118.93000030517578 0,116.72000122070312 C0,116.72000122070312 0,4 0,4 C0,4 0,4 0,4z M49.040000915527344,34.459999084472656 C49.040000915527344,28.850000381469727 46.22999954223633,26.040000915527344 40.61000061035156,26.040000915527344 C40.61000061035156,26.040000915527344 33.619998931884766,26.040000915527344 33.619998931884766,26.040000915527344 C31.40999984741211,26.040000915527344 29.6200008392334,27.829999923706055 29.6200008392334,30.040000915527344 C29.6200008392334,30.040000915527344 29.6200008392334,62.68000030517578 29.6200008392334,62.68000030517578 C29.6200008392334,64.88999938964844 31.40999984741211,66.68000030517578 33.619998931884766,66.68000030517578 C33.619998931884766,66.68000030517578 40.61000061035156,66.68000030517578 40.61000061035156,66.68000030517578 C46.22999954223633,66.68000030517578 49.040000915527344,63.880001068115234 49.040000915527344,58.27000045776367 C49.040000915527344,58.27000045776367 49.040000915527344,34.459999084472656 49.040000915527344,34.459999084472656 C49.040000915527344,34.459999084472656 49.040000915527344,34.459999084472656 49.040000915527344,34.459999084472656z"></path>
    </g>
    <g style="display: block;" transform="matrix(1,0,0,1,239,222)" opacity="1">
      <path fill="#111827" fill-opacity="1" d=" M0,3.5399999618530273 C0,1.590000033378601 1.7899999618530273,0 4,0 C4,0 26,0 26,0 C28.209999084472656,0 30,1.590000033378601 30,3.5399999618530273 C30,3.5399999618530273 30,156.4600067138672 30,156.4600067138672 C30,158.41000366210938 28.209999084472656,160 26,160 C26,160 4,160 4,160 C1.7899999618530273,160 0,158.41000366210938 0,156.4600067138672 C0,156.4600067138672 0,3.5399999618530273 0,3.5399999618530273 C0,3.5399999618530273 0,3.5399999618530273 0,3.5399999618530273z"></path>
    </g>
    <g style="display: block;" transform="matrix(1,0,0,1,179,352)" opacity="1">
      <path fill="#111827" fill-opacity="1" d=" M4,0 C1.7899999618530273,0 0,1.7899999618530273 0,4 C0,4 0,26 0,26 C0,28.209999084472656 1.7899999618530273,30 4,30 C4,30 16,30 16,30 C18.209999084472656,30 20,28.209999084472656 20,26 C20,26 20,4 20,4 C20,1.7899999618530273 18.209999084472656,0 16,0 C16,0 4,0 4,0 C4,0 4,0 4,0z"></path>
    </g>
    <g style="display: none;" transform="matrix(1,0,0,1,196,352)" opacity="0.0026879918872572263">
      <path fill="#111827" fill-opacity="1" d=" M4,0 C1.7899999618530273,0 0,1.7899999618530273 0,4 C0,4 0,26 0,26 C0,28.209999084472656 1.7899999618530273,30 4,30 C4,30 16,30 16,30 C18.209999084472656,30 20,28.209999084472656 20,26 C20,26 20,4 20,4 C20,1.7899999618530273 18.209999084472656,0 16,0 C16,0 4,0 4,0 C4,0 4,0 4,0z"></path>
    </g>
    <g style="display: block;" transform="matrix(1,0,0,1,191,261)" opacity="1">
      <path fill="#111827" fill-opacity="1" d=" M30,2.6700000762939453 C30,1.190000057220459 28.209999084472656,0 26,0 C26,0 4,0 4,0 C1.7899999618530273,0 0,1.190000057220459 0,2.6700000762939453 C0,2.6700000762939453 0,118.33000183105469 0,118.33000183105469 C0,119.80999755859375 1.7899999618530273,121 4,121 C4,121 26,121 26,121 C28.209999084472656,121 30,119.80999755859375 30,118.33000183105469 C30,118.33000183105469 30,2.6700000762939453 30,2.6700000762939453 C30,2.6700000762939453 30,2.6700000762939453 30,2.6700000762939453z"></path>
    </g>
    <g style="display: block;" transform="matrix(1,0,0,1,179,222)" opacity="1">
      <path fill="#111827" fill-opacity="1" d=" M4,0 C1.7899999618530273,0 0,1.7899999618530273 0,4 C0,4 0,26 0,26 C0,28.209999084472656 1.7899999618530273,30 4,30 C4,30 38,30 38,30 C40.209999084472656,30 42,28.209999084472656 42,26 C42,26 42,4 42,4 C42,1.7899999618530273 40.209999084472656,0 38,0 C38,0 4,0 4,0 C4,0 4,0 4,0z"></path>
    </g>
    <g style="display: block;" transform="matrix(1,0,0,1,309,352)" opacity="1">
      <path fill="#111827" fill-opacity="1" d=" M16,0 C18.209999084472656,0 20,1.7899999618530273 20,4 C20,4 20,26 20,26 C20,28.209999084472656 18.209999084472656,30 16,30 C16,30 4,30 4,30 C1.7899999618530273,30 0,28.209999084472656 0,26 C0,26 0,4 0,4 C0,1.7899999618530273 1.7899999618530273,0 4,0 C4,0 16,0 16,0 C16,0 16,0 16,0z"></path>
    </g>
    <g style="display: block;" transform="matrix(1,0,0,1,309,184)" opacity="1">
      <path fill="#111827" fill-opacity="1" d=" M16,0 C18.209999084472656,0 20,1.7899999618530273 20,4 C20,4 20,26 20,26 C20,28.209999084472656 18.209999084472656,30 16,30 C16,30 4,30 4,30 C1.7899999618530273,30 0,28.209999084472656 0,26 C0,26 0,4 0,4 C0,1.7899999618530273 1.7899999618530273,0 4,0 C4,0 16,0 16,0 C16,0 16,0 16,0z"></path>
    </g>
    <g style="display: block;" transform="matrix(1,0,0,1,287,184)" opacity="1">
      <path fill="#111827" fill-opacity="1" d=" M0,4.380000114440918 C0,1.9600000381469727 1.7899999618530273,0 4,0 C4,0 26,0 26,0 C28.209999084472656,0 30,1.9600000381469727 30,4.380000114440918 C30,4.380000114440918 30,193.6199951171875 30,193.6199951171875 C30,196.0399932861328 28.209999084472656,198 26,198 C26,198 4,198 4,198 C1.7899999618530273,198 0,196.0399932861328 0,193.6199951171875 C0,193.6199951171875 0,4.380000114440918 0,4.380000114440918 C0,4.380000114440918 0,4.380000114440918 0,4.380000114440918z"></path>
    </g>
    <g style="display: block;" transform="matrix(1,0,0,1,340.5,261)" opacity="1">
      <path fill="#111827" fill-opacity="1" d=" M6.440000057220459,6.570000171661377 C6.440000057220459,4.829999923706055 7.550000190734863,3.2799999713897705 9.239999771118164,2.8499999046325684 C16.6299991607666,0.949999988079071 26.56999969482422,0 39.029998779296875,0 C53.150001525878906,0 63.2400016784668,2.880000114440918 69.33000183105469,8.640000343322754 C75.41999816894531,14.270000457763672 78.47000122070312,22.860000610351562 78.47000122070312,34.38999938964844 C78.47000122070312,34.38999938964844 78.47000122070312,116.33000183105469 78.47000122070312,116.33000183105469 C78.47000122070312,118.54000091552734 76.68000030517578,120.33000183105469 74.47000122070312,120.33000183105469 C74.47000122070312,120.33000183105469 51.16999816894531,120.33000183105469 51.16999816894531,120.33000183105469 C50.08000183105469,120.33000183105469 49.20000076293945,119.44999694824219 49.20000076293945,118.36000061035156 C49.20000076293945,116.43000030517578 46.36000061035156,115.38999938964844 44.77000045776367,116.48999786376953 C40.709999084472656,119.30999755859375 35.20000076293945,120.72000122070312 28.229999542236328,120.72000122070312 C18.270000457763672,120.72000122070312 11.069999694824219,118.54000091552734 6.639999866485596,114.19000244140625 C2.2100000381469727,109.70999908447266 0,102.58999633789062 0,92.86000061035156 C0,92.86000061035156 0,86.33000183105469 0,86.33000183105469 C0,77.75 2.009999990463257,71.16000366210938 6.019999980926514,66.55000305175781 C10.170000076293945,61.939998626708984 16.81999969482422,58.47999954223633 25.950000762939453,56.16999816894531 C25.950000762939453,56.16999816894531 45.5,51.529998779296875 45.5,51.529998779296875 C47.29999923706055,51.099998474121094 48.56999969482422,49.47999954223633 48.56999969482422,47.630001068115234 C48.56999969482422,47.630001068115234 48.56999969482422,34.189998626708984 48.56999969482422,34.189998626708984 C48.43000030517578,30.860000610351562 47.400001525878906,28.559999465942383 45.459999084472656,27.280000686645508 C43.52000045776367,25.8700008392334 39.9900016784668,25.15999984741211 34.869998931884766,25.15999984741211 C26.010000228881836,25.15999984741211 18.350000381469727,25.959999084472656 11.880000114440918,27.559999465942383 C9.1899995803833,28.219999313354492 6.440000057220459,26.280000686645508 6.440000057220459,23.510000228881836 C6.440000057220459,23.510000228881836 6.440000057220459,6.570000171661377 6.440000057220459,6.570000171661377 C6.440000057220459,6.570000171661377 6.440000057220459,6.570000171661377 6.440000057220459,6.570000171661377z M30.719999313354492,87.4800033569336 C30.719999313354492,87.4800033569336 30.719999313354492,92.86000061035156 30.719999313354492,92.86000061035156 C30.719999313354492,97.20999908447266 33.150001525878906,99.38999938964844 37.9900016784668,99.38999938964844 C41.08000183105469,99.38999938964844 43.790000915527344,99 46.11000061035156,98.22000122070312 C47.540000915527344,97.73999786376953 48.369998931884766,96.33000183105469 48.369998931884766,94.83000183105469 C48.369998931884766,94.83000183105469 48.369998931884766,79.12000274658203 48.369998931884766,79.12000274658203 C48.369998931884766,76.52999877929688 45.95000076293945,74.62000274658203 43.43000030517578,75.2300033569336 C43.43000030517578,75.2300033569336 38.81999969482422,76.33999633789062 38.81999969482422,76.33999633789062 C35.36000061035156,77.23999786376953 33.150001525878906,78.38999938964844 32.18000030517578,79.80000305175781 C31.209999084472656,81.20999908447266 30.719999313354492,83.7699966430664 30.719999313354492,87.4800033569336 C30.719999313354492,87.4800033569336 30.719999313354492,87.4800033569336 30.719999313354492,87.4800033569336z"></path>
    </g>
    <g style="display: block;" transform="matrix(1,0,0,1,436.9700012207031,261)" opacity="1">
      <path fill="#111827" fill-opacity="1" d=" M50.93000030517578,0 C50.93000030517578,0 74.08000183105469,0 74.08000183105469,0 C76.29000091552734,0 78.08000183105469,1.7899999618530273 78.08000183105469,4 C78.08000183105469,4 78.08000183105469,22.8799991607666 78.08000183105469,22.8799991607666 C78.08000183105469,25.09000015258789 76.29000091552734,26.8799991607666 74.08000183105469,26.8799991607666 C74.08000183105469,26.8799991607666 49.72999954223633,26.8799991607666 49.72999954223633,26.8799991607666 C43.2400016784668,26.8799991607666 37.45000076293945,33.75 32.369998931884766,37.220001220703125 C31.079999923706055,38.099998474121094 30.15999984741211,39.5 30.15999984741211,41.060001373291016 C30.15999984741211,41.060001373291016 30.15999984741211,116.72000122070312 30.15999984741211,116.72000122070312 C30.15999984741211,118.93000030517578 28.3700008392334,120.72000122070312 26.15999984741211,120.72000122070312 C26.15999984741211,120.72000122070312 4,120.72000122070312 4,120.72000122070312 C1.7899999618530273,120.72000122070312 0,118.93000030517578 0,116.72000122070312 C0,116.72000122070312 0,4.579999923706055 0,4.579999923706055 C0,2.369999885559082 1.7899999618530273,0.5799999833106995 4,0.5799999833106995 C4,0.5799999833106995 24.360000610351562,0.5799999833106995 24.360000610351562,0.5799999833106995 C26.56999969482422,0.5799999833106995 28.360000610351562,2.369999885559082 28.360000610351562,4.579999923706055 C28.360000610351562,4.579999923706055 28.360000610351562,5.75 28.360000610351562,5.75 C28.360000610351562,8.84000015258789 31.6299991607666,10.630000114440918 34.119998931884766,8.789999961853027 C39.63999938964844,4.710000038146973 45.66999816894531,0 50.93000030517578,0 C50.93000030517578,0 50.93000030517578,0 50.93000030517578,0z"></path>
    </g>
  </g>
</svg>